<mxfile host="65bd71144e">
    <diagram id="Edp7UiTPOjjeuZ_E9vBV" name="Page-1">
        <mxGraphModel dx="733" dy="520" grid="1" gridSize="10" guides="1" tooltips="1" connect="1" arrows="1" fold="1" page="1" pageScale="1" pageWidth="850" pageHeight="1100" math="0" shadow="0">
            <root>
                <mxCell id="0"/>
                <mxCell id="1" parent="0"/>
                <mxCell id="3" value="App.js&lt;br&gt;&lt;br&gt;state: darkMode&lt;br&gt;&lt;br&gt;updateDarkMode = () =&amp;gt; {&lt;br&gt;setDarkMode(prev =&amp;gt; !prev&lt;br&gt;)}" style="whiteSpace=wrap;html=1;" parent="1" vertex="1">
                    <mxGeometry x="300" y="40" width="200" height="110" as="geometry"/>
                </mxCell>
                <mxCell id="8" style="edgeStyle=none;html=1;" parent="1" source="4" edge="1">
                    <mxGeometry relative="1" as="geometry">
                        <mxPoint x="200" y="210" as="targetPoint"/>
                    </mxGeometry>
                </mxCell>
                <mxCell id="4" value="Header.js&lt;br&gt;&lt;br&gt;onClick={() =&amp;gt; updateDarkMode()}" style="whiteSpace=wrap;html=1;" parent="1" vertex="1">
                    <mxGeometry x="130" y="210" width="160" height="90" as="geometry"/>
                </mxCell>
                <mxCell id="5" value="" style="endArrow=classic;html=1;exitX=0.005;exitY=0.436;exitDx=0;exitDy=0;exitPerimeter=0;" parent="1" source="3" edge="1">
                    <mxGeometry relative="1" as="geometry">
                        <mxPoint x="180" y="210" as="sourcePoint"/>
                        <mxPoint x="190" y="210" as="targetPoint"/>
                    </mxGeometry>
                </mxCell>
                <mxCell id="6" value="props: darkMode, updateDarkMode" style="edgeLabel;resizable=0;html=1;align=center;verticalAlign=middle;" parent="5" connectable="0" vertex="1">
                    <mxGeometry relative="1" as="geometry"/>
                </mxCell>
                <mxCell id="9" value="j" style="endArrow=classic;html=1;entryX=0.72;entryY=1.036;entryDx=0;entryDy=0;entryPerimeter=0;exitX=1;exitY=0.75;exitDx=0;exitDy=0;" edge="1" parent="1" source="4" target="3">
                    <mxGeometry relative="1" as="geometry">
                        <mxPoint x="310" y="260" as="sourcePoint"/>
                        <mxPoint x="470" y="190" as="targetPoint"/>
                    </mxGeometry>
                </mxCell>
                <mxCell id="10" value="onClick/updateDarkMde triggers setDarkMode" style="edgeLabel;resizable=0;html=1;align=center;verticalAlign=middle;" connectable="0" vertex="1" parent="9">
                    <mxGeometry relative="1" as="geometry">
                        <mxPoint x="73" y="24" as="offset"/>
                    </mxGeometry>
                </mxCell>
                <mxCell id="11" value="Text" style="edgeLabel;html=1;align=center;verticalAlign=middle;resizable=0;points=[];" vertex="1" connectable="0" parent="9">
                    <mxGeometry x="-0.0127" y="3" relative="1" as="geometry">
                        <mxPoint as="offset"/>
                    </mxGeometry>
                </mxCell>
            </root>
        </mxGraphModel>
    </diagram>
</mxfile>